HIERARCHY
ROOT Hips
{
	OFFSET 0.000000 0.000000 0.000000
	CHANNELS 6 Xposition Yposition Zposition Xrotation Yrotation Zrotation
	JOINT LeftUpLeg_virtual
	{
		OFFSET 0.000000 0.000000 0.000000
		CHANNELS 3 Xrotation Yrotation Zrotation
		JOINT LeftUpLeg
		{
			OFFSET 10.205400 -3.823500 0.155100
			CHANNELS 3 Xrotation Yrotation Zrotation
			JOINT LeftLeg
			{
				OFFSET 0.708757 -12.982077 0.567790
				CHANNELS 3 Xrotation Yrotation Zrotation
				JOINT LeftFoot
				{
					OFFSET -0.708756 -10.717838 -2.184338
					CHANNELS 3 Xrotation Yrotation Zrotation
					JOINT LeftToeBase
					{
						OFFSET 0.108149 -7.191104 7.560241
						CHANNELS 3 Xrotation Yrotation Zrotation
						JOINT LeftToe_End
						{
							OFFSET 0.070230 0.081724 4.490308
							CHANNELS 3 Xrotation Yrotation Zrotation
							End Site
							{
								OFFSET 0 0 0
							}
						}
					}
				}
			}
		}
	}
	JOINT RightUpLeg_virtual
	{
		OFFSET 0.000000 0.000000 0.000000
		CHANNELS 3 Xrotation Yrotation Zrotation
		JOINT RightUpLeg
		{
			OFFSET -10.205400 -3.823500 0.005500
			CHANNELS 3 Xrotation Yrotation Zrotation
			JOINT RightLeg
			{
				OFFSET -0.708756 -12.982134 0.610632
				CHANNELS 3 Xrotation Yrotation Zrotation
				JOINT RightFoot
				{
					OFFSET 0.708754 -10.717769 -1.945823
					CHANNELS 3 Xrotation Yrotation Zrotation
					JOINT RightToeBase
					{
						OFFSET -0.108140 -7.191069 7.372968
						CHANNELS 3 Xrotation Yrotation Zrotation
						JOINT RightToe_End
						{
							OFFSET -0.070227 0.081735 4.479403
							CHANNELS 3 Xrotation Yrotation Zrotation
							End Site
							{
								OFFSET 0 0 0
							}
						}
					}
				}
			}
		}
	}
	JOINT Spine_virtual
	{
		OFFSET 0.000000 0.000000 0.000000
		CHANNELS 3 Xrotation Yrotation Zrotation
		JOINT Spine
		{
			OFFSET 0.000000 6.876099 0.125700
			CHANNELS 3 Xrotation Yrotation Zrotation
			JOINT Spine1
			{
				OFFSET 0.000000 5.730043 0.104720
				CHANNELS 3 Xrotation Yrotation Zrotation
				JOINT Spine1_split
				{
					OFFSET 0.000000 5.730043 0.104720
					CHANNELS 3 Xrotation Yrotation Zrotation
					JOINT Spine2
					{
						OFFSET 0.000000 5.730043 0.104720
						CHANNELS 3 Xrotation Yrotation Zrotation
						JOINT Neck_virtual
						{
							OFFSET 0.000000 0.000000 0.000000
							CHANNELS 3 Xrotation Yrotation Zrotation
							JOINT Neck
							{
								OFFSET 0.000000 10.314075 0.188496
								CHANNELS 3 Xrotation Yrotation Zrotation
								JOINT Head
								{
									OFFSET 0.000000 7.643700 -2.377400
									CHANNELS 3 Xrotation Yrotation Zrotation
									JOINT HeadTop_End
									{
										OFFSET 0.000000 43.788605 -13.619600
										CHANNELS 3 Xrotation Yrotation Zrotation
										End Site
										{
											OFFSET 0 0 0
										}
									}
								}
							}
						}
						JOINT LeftShoulder_virtual
						{
							OFFSET 0.000000 0.000000 0.000000
							CHANNELS 3 Xrotation Yrotation Zrotation
							JOINT LeftShoulder
							{
								OFFSET 2.196100 4.412489 0.087492
								CHANNELS 3 Xrotation Yrotation Zrotation
								JOINT LeftShoulder_split
								{
									OFFSET 2.196100 4.412489 0.087492
									CHANNELS 3 Xrotation Yrotation Zrotation
									JOINT LeftArm
									{
										OFFSET 8.771219 -2.981674 -0.026999
										CHANNELS 3 Xrotation Yrotation Zrotation
										JOINT LeftForeArm
										{
											OFFSET 8.512804 0.000000 -0.000000
											CHANNELS 3 Xrotation Yrotation Zrotation
											JOINT LeftHand
											{
												OFFSET 18.484802 0.000000 -0.000000
												CHANNELS 3 Xrotation Yrotation Zrotation
												End Site
												{
													OFFSET 0 0 0
												}
											}
										}
									}
								}
							}
						}
						JOINT RightShoulder_virtual
						{
							OFFSET 0.000000 0.000000 0.000000
							CHANNELS 3 Xrotation Yrotation Zrotation
							JOINT RightShoulder
							{
								OFFSET -2.196100 4.412496 0.070690
								CHANNELS 3 Xrotation Yrotation Zrotation
								JOINT RightShoulder_split
								{
									OFFSET -2.196100 4.412496 0.070690
									CHANNELS 3 Xrotation Yrotation Zrotation
									JOINT RightArm
									{
										OFFSET -8.771282 -2.981682 -0.094208
										CHANNELS 3 Xrotation Yrotation Zrotation
										JOINT RightForeArm
										{
											OFFSET -8.494598 0.000000 0.000000
											CHANNELS 3 Xrotation Yrotation Zrotation
											JOINT RightHand
											{
												OFFSET -18.483803 0.000000 0.000001
												CHANNELS 3 Xrotation Yrotation Zrotation
												End Site
												{
													OFFSET 0 0 0
												}
											}
										}
									}
								}
							}
						}
					}
				}
			}
		}
	}
}
MOTION
Frames: 7
Frame Time: 0.03333333
2.825181 29.247917 -3.399370 0.000000 0.000000 0.000000 20.266985 9.373326 -22.564737 -72.048285 -11.379466 18.300291 69.900716 10.718817 0.400031 -11.146519 -18.125737 -15.115499 -10.055650 -3.098280 3.115323 0.000000 0.000000 0.000000 20.525543 10.389393 -23.697621 -15.557880 -23.714581 10.624499 25.230307 10.369841 -1.838584 -20.231440 -20.837065 16.547136 3.405869 1.078753 -13.781811 0.000000 0.000000 0.000000 21.310412 14.813757 -25.031684 16.127397 0.797446 -13.819564 7.803608 0.332427 -7.971183 0.348545 -0.771535 0.074723 0.000000 0.000000 0.000000 7.102873 2.487138 -7.579434 -3.663939 21.679654 1.200979 18.629549 -3.795601 54.333967 0.000000 0.000000 0.000000 5.387486 -0.417279 -7.005517 -2.534278 -9.764260 1.808159 -3.133281 2.440447 -0.869486 -43.408492 -38.584398 -79.953115 -24.236689 -50.491436 -15.843438 0.000000 0.000000 0.000000 5.542970 -0.010551 -7.141872 -4.529816 5.346995 -4.106916 6.070959 -0.089271 0.386762 19.714554 60.670877 1.397298 -52.599956 72.015752 37.713911 0.000000 0.000000 0.000000 
2.877191 29.291922 -3.390244 0.000000 0.000000 0.000000 20.083842 9.065054 -22.101285 -71.678143 -10.208880 18.827355 69.314112 10.701229 0.580511 -11.388332 -17.755569 -15.032287 -9.393254 -2.989622 3.175215 0.000000 0.000000 0.000000 20.443284 10.300816 -23.286599 -15.930894 -23.745448 10.255075 25.487870 10.287972 -1.729126 -20.375892 -20.579575 16.257879 3.835410 0.984099 -13.578883 0.000000 0.000000 0.000000 20.876333 14.555521 -24.498685 15.914597 0.560189 -13.427343 8.161360 0.505289 -8.037303 0.348279 -0.712694 0.053950 0.000000 0.000000 0.000000 7.467608 2.693974 -7.650304 -2.769312 21.639038 2.166550 20.811759 -5.092384 57.151280 0.000000 0.000000 0.000000 5.550076 -0.243242 -7.078115 -2.566729 -9.432722 1.361445 -2.861399 2.044477 -0.636074 -42.444158 -38.760098 -79.288592 -23.519787 -51.264705 -15.243406 0.000000 0.000000 0.000000 5.621564 0.140298 -7.142725 -4.368786 6.081011 -4.288450 6.051750 0.326680 0.610004 20.241773 60.595697 1.220520 -49.822504 70.586112 35.146460 0.000000 0.000000 0.000000 
2.891262 29.319736 -3.371359 0.000000 0.000000 0.000000 19.858326 8.663598 -21.598861 -71.389813 -8.673207 19.633317 68.849625 10.848509 0.729763 -12.028393 -17.219293 -14.531426 -8.148948 -2.862887 3.231714 0.000000 0.000000 0.000000 20.295678 10.108612 -22.850152 -16.479746 -23.720243 9.804895 25.956992 10.110720 -1.549841 -20.521602 -20.351845 15.909565 4.299245 0.842715 -13.495109 0.000000 0.000000 0.000000 20.316256 14.152040 -23.918228 15.619888 0.343823 -13.038513 8.503474 0.583441 -8.121876 0.319898 -0.677529 0.083192 0.000000 0.000000 0.000000 7.855552 2.824537 -7.706198 -2.056497 21.630079 3.277736 22.906031 -6.949144 60.316560 0.000000 0.000000 0.000000 5.766755 -0.145357 -7.183422 -2.628595 -8.984300 0.837070 -2.394804 1.878458 -0.557817 -41.103839 -38.906165 -78.362938 -22.194061 -51.800414 -14.042201 0.000000 0.000000 0.000000 5.727884 0.218490 -7.144501 -4.291722 6.847392 -4.431219 5.884459 0.832492 0.808859 20.826869 60.441908 1.297153 -46.734712 68.706048 32.359415 0.000000 0.000000 0.000000 
2.881899 29.333775 -3.365137 0.000000 0.000000 0.000000 19.624602 8.109973 -21.003899 -71.219516 -7.014622 20.486811 68.571623 10.937588 0.993655 -12.790924 -16.621503 -14.130471 -6.958632 -2.734724 3.376828 0.000000 0.000000 0.000000 20.059093 9.615300 -22.285391 -17.366862 -23.671381 9.174166 26.627822 9.902369 -1.347814 -20.519990 -20.122898 15.649024 4.817577 0.652554 -13.523150 0.000000 0.000000 0.000000 19.726665 13.527198 -23.222551 15.329666 0.164548 -12.681802 8.867639 0.544583 -8.222720 0.288034 -0.731053 0.123688 0.000000 0.000000 0.000000 8.250597 2.870788 -7.744188 -1.527770 21.667559 4.490830 24.943765 -9.182911 63.461425 0.000000 0.000000 0.000000 6.085039 -0.129012 -7.317596 -2.709631 -8.493465 0.332687 -1.829269 1.981227 -0.557037 -39.627221 -39.077630 -77.141926 -20.527266 -52.406450 -12.464252 0.000000 0.000000 0.000000 5.900659 0.214831 -7.157485 -4.279479 7.628345 -4.507720 5.387512 1.291891 1.121407 21.958809 60.189826 0.904240 -44.059112 66.728093 30.070717 0.000000 0.000000 0.000000 
2.855972 29.351494 -3.386419 0.000000 0.000000 0.000000 19.439796 7.392517 -20.318621 -71.124563 -5.441534 21.225851 68.424726 10.757600 1.441952 -13.266747 -16.081436 -14.159776 -6.412580 -2.636344 3.723081 0.000000 0.000000 0.000000 19.755386 8.798364 -21.547481 -18.589956 -23.544576 8.386849 27.386328 9.704136 -1.167605 -20.280227 -19.853191 15.574913 5.303589 0.427641 -13.644061 0.000000 0.000000 0.000000 19.273054 12.660064 -22.432534 15.103377 0.076181 -12.370413 9.281913 0.438674 -8.350694 0.286974 -0.834308 0.168302 0.000000 0.000000 0.000000 8.621930 2.876769 -7.779895 -1.159927 21.677514 5.773379 26.972796 -11.573828 66.166447 0.000000 0.000000 0.000000 6.520866 -0.160125 -7.481285 -2.766663 -8.077741 -0.011724 -1.244789 2.298610 -0.420019 -38.121198 -39.427369 -75.703372 -18.854765 -53.454116 -10.790897 0.000000 0.000000 0.000000 6.150758 0.185569 -7.210179 -4.276921 8.395534 -4.496350 4.529180 1.457007 1.560926 23.548054 59.839185 0.119537 -42.248736 65.061923 28.732570 0.000000 0.000000 0.000000 
2.813758 29.380363 -3.434772 0.000000 0.000000 0.000000 19.308180 6.527751 -19.559100 -71.109250 -4.057608 21.842375 68.272720 10.395731 1.999444 -13.289819 -15.576359 -14.392175 -6.411166 -2.563403 4.173760 0.000000 0.000000 0.000000 19.516900 7.852918 -20.709772 -20.016361 -23.216697 7.589921 28.075214 9.503354 -1.049692 -19.849621 -19.532041 15.649007 5.679632 0.189332 -13.818912 0.000000 0.000000 0.000000 18.998468 11.577323 -21.593448 14.973936 0.126755 -12.099725 9.748444 0.343639 -8.504713 0.294415 -0.939516 0.200622 0.000000 0.000000 0.000000 8.953363 2.896057 -7.833427 -0.911088 21.639679 7.073745 28.750407 -13.898159 68.017141 0.000000 0.000000 0.000000 7.086565 -0.187810 -7.675673 -2.760846 -7.855554 -0.043986 -0.669844 2.830754 -0.128635 -36.587025 -39.874351 -74.169605 -17.475744 -55.138386 -9.313146 0.000000 0.000000 0.000000 6.502553 0.183111 -7.313941 -4.279514 9.075528 -4.376347 3.522679 1.272610 1.935563 25.392844 59.453716 -0.861882 -41.358018 63.913755 28.388679 0.000000 0.000000 0.000000 
2.765762 29.425222 -3.505816 0.000000 0.000000 0.000000 19.252628 5.512416 -18.778377 -71.127992 -2.907430 22.316110 68.022004 10.110811 2.570249 -13.014931 -14.902791 -14.433375 -6.169866 -2.461442 4.408068 0.000000 0.000000 0.000000 19.468059 6.881352 -19.848115 -21.445445 -22.586322 6.962881 28.575077 9.213780 -1.027351 -19.333250 -19.180706 15.673039 5.926479 -0.021700 -13.987351 0.000000 0.000000 0.000000 18.860777 10.324697 -20.739886 14.921421 0.322373 -11.853184 10.238663 0.344161 -8.651894 0.302521 -1.050301 0.181648 0.000000 0.000000 0.000000 9.218187 2.989474 -7.903442 -0.714308 21.506466 8.311410 30.331665 -16.526445 68.960916 0.000000 0.000000 0.000000 7.694173 -0.139803 -7.891827 -2.668381 -7.964856 0.271726 -0.152530 3.531607 0.126894 -35.099570 -40.456839 -72.789579 -16.646964 -57.375918 -8.313737 0.000000 0.000000 0.000000 6.929448 0.296257 -7.446418 -4.260707 9.582497 -4.063576 2.557620 0.719908 2.207524 27.143771 59.146856 -1.737148 -41.093977 63.153992 28.711472 0.000000 0.000000 0.000000 
